<?xml version="1.0" encoding="utf-8"?>
<!DOCTYPE svg PUBLIC "-//W3C//DTD SVG 1.1//EN" "http://www.w3.org/Graphics/SVG/1.1/DTD/svg11.dtd">
<svg version="1.1" id="Layer_1" xmlns="http://www.w3.org/2000/svg"
width="100%" height="100%" viewBox="0 0 555 555"
xml:space="preserve">
  <g>
  <circle fill="none" stroke="#4F3C40" stroke-width="48" cx="275" cy="275" r="248.827"/>
  <path fill="#4F3C40" d="M239.851,196.454v66.053l67.361-67.361c-7.56-0.872-12.862-3.015-15.914-6.431
  c-3.053-3.413-4.578-8.829-4.578-16.241c0-8.573,2.071-14.749,6.213-18.53c4.143-3.777,11.152-5.668,21.037-5.668h53.409
  c9.882,0,16.896,1.891,21.036,5.668c4.143,3.781,6.214,9.957,6.214,18.53c0,7.995-2.071,13.989-6.214,17.985
  c-4.142,3.999-10.212,5.995-18.202,5.995h-5.015l-63.438,63.001c11.771,8.72,22.524,20.165,32.264,34.334
  c9.735,14.17,21.146,35.936,34.227,65.291h2.834h4.359c8.573,0,14.967,1.962,19.185,5.886c4.214,3.924,6.321,9.811,6.321,17.657
  c0,8.577-2.146,14.753-6.431,18.53c-4.289,3.78-11.374,5.668-21.255,5.668h-26.814c-11.771,0-21.292-7.92-28.558-23.763
  c-1.309-2.904-2.326-5.231-3.052-6.976c-9.593-20.346-18.388-36.042-26.378-47.088c-7.994-11.043-17.368-21.146-28.123-30.302
  l-20.49,19.62v40.766h3.486c7.85,0,13.845,1.999,17.985,5.994c4.142,3.999,6.213,9.848,6.213,17.549
  c0,8.577-2.146,14.753-6.431,18.53c-4.289,3.78-11.374,5.668-21.255,5.668h-56.244c-10.027,0-17.15-1.854-21.363-5.56
  c-4.217-3.706-6.322-9.919-6.322-18.64c0-7.701,2.034-13.55,6.104-17.549c4.065-3.995,10.026-5.994,17.875-5.994h3.706V196.454
  h-3.765c-7.826,0-13.771-2.034-17.831-6.104c-4.061-4.067-6.091-10.028-6.091-17.876c0-8.573,2.103-14.749,6.312-18.53
  c4.207-3.777,11.333-5.668,21.374-5.668h56.244c9.733,0,16.784,1.891,21.146,5.668c4.36,3.781,6.54,9.957,6.54,18.53
  c0,7.848-2.071,13.809-6.213,17.876c-4.142,4.07-10.137,6.104-17.985,6.104H239.851z"/>
  </g>
</svg>